HIERARCHY
ROOT root
{
	OFFSET 0.000000 0.000000 0.000000
	CHANNELS 6 Xposition Yposition Zposition Zrotation Yrotation Xrotation
	JOINT lhip
	{
		OFFSET 0.058581 -0.082280 -0.017664
		CHANNELS 3 Zrotation Yrotation Xrotation
		JOINT lknee
		{
			OFFSET 0.043451 -0.386469 0.008037
			CHANNELS 3 Zrotation Yrotation Xrotation
			JOINT lankle
			{
				OFFSET -0.014790 -0.426874 -0.037428
				CHANNELS 3 Zrotation Yrotation Xrotation
				JOINT ltoe
				{
					OFFSET 0.041054 -0.060286 0.122042
					CHANNELS 3 Zrotation Yrotation Xrotation
					End Site
					{
						OFFSET 0.000000 0.000000 0.000000
					}
				}
			}
		}
	}
	JOINT rhip
	{
		OFFSET -0.060310 -0.090513 -0.013543
		CHANNELS 3 Zrotation Yrotation Xrotation
		JOINT rknee
		{
			OFFSET -0.043257 -0.383688 -0.004843
			CHANNELS 3 Zrotation Yrotation Xrotation
			JOINT rankle
			{
				OFFSET 0.019056 -0.420046 -0.034562
				CHANNELS 3 Zrotation Yrotation Xrotation
				JOINT rtoe
				{
					OFFSET -0.034840 -0.062106 0.130323
					CHANNELS 3 Zrotation Yrotation Xrotation
					End Site
					{
						OFFSET 0.000000 0.000000 0.000000
					}
				}
			}
		}
	}
	JOINT lowerback
	{
		OFFSET 0.004439 0.124404 -0.038385
		CHANNELS 3 Zrotation Yrotation Xrotation
		JOINT upperback
		{
			OFFSET 0.004488 0.137956 0.026820
			CHANNELS 3 Zrotation Yrotation Xrotation
			JOINT chest
			{
				OFFSET -0.002265 0.056032 0.002855
				CHANNELS 3 Zrotation Yrotation Xrotation
				JOINT lowerneck
				{
					OFFSET -0.013390 0.211636 -0.033468
					CHANNELS 3 Zrotation Yrotation Xrotation
					JOINT upperneck
					{
						OFFSET 0.010113 0.088937 0.050410
						CHANNELS 3 Zrotation Yrotation Xrotation
						End Site
						{
							OFFSET 0.000000 0.000000 0.000000
						}
					}
				}
				JOINT lclavicle
				{
					OFFSET 0.071702 0.114000 -0.018898
					CHANNELS 3 Zrotation Yrotation Xrotation
					JOINT lshoulder
					{
						OFFSET 0.122921 0.045205 -0.019046
						CHANNELS 3 Zrotation Yrotation Xrotation
						JOINT lelbow
						{
							OFFSET 0.255332 -0.015649 -0.022946
							CHANNELS 3 Zrotation Yrotation Xrotation
							JOINT lwrist
							{
								OFFSET 0.265709 0.012698 -0.007375
								CHANNELS 3 Zrotation Yrotation Xrotation
								End Site
								{
									OFFSET 0.000000 0.000000 0.000000
								}
							}
						}
					}
				}
				JOINT rclavicle
				{
					OFFSET -0.082954 0.112472 -0.023707
					CHANNELS 3 Zrotation Yrotation Xrotation
					JOINT rshoulder
					{
						OFFSET -0.113228 0.046853 -0.008472
						CHANNELS 3 Zrotation Yrotation Xrotation
						JOINT relbow
						{
							OFFSET -0.260127 -0.014369 -0.031269
							CHANNELS 3 Zrotation Yrotation Xrotation
							JOINT rwrist
							{
								OFFSET -0.269108 0.006794 -0.006027
								CHANNELS 3 Zrotation Yrotation Xrotation
								End Site
								{
									OFFSET 0.000000 0.000000 0.000000
								}
							}
						}
					}
				}
			}
		}
	}
}
MOTION
Frames: 5
Frame Time: 0.033333
0.924806 3.036200 0.990173 -47.548440 0.665831 86.226244 1.710731 3.464148 7.563198 -4.262843 6.630894 -4.165605 5.063739 14.662688 -13.360136 0.000000 -0.000000 0.000000 0.008196 -2.682789 -2.660111 1.229142 -10.067582 14.972996 2.993764 -8.661915 -11.896907 0.000000 -0.000000 0.000000 -0.687152 -2.665758 -0.943426 3.360316 -4.595197 14.079453 -1.777925 -1.198512 -3.124844 4.764353 -0.718435 -2.728385 -3.652209 3.715228 13.371334 -18.289092 17.425567 1.272468 -65.437306 -0.863635 18.635928 175.854718 -48.626356 -143.121449 -27.796904 -9.093223 -1.006250 19.249802 -11.033338 -1.741922 58.704395 2.879763 15.879190 -174.220051 55.031425 -146.417935 34.341762 10.562332 -9.266858 
0.925438 3.036842 0.990138 -47.616394 0.640351 86.225534 1.688643 3.451968 7.478934 -4.271184 6.734064 -4.125547 5.239908 14.618206 -13.266883 0.000000 -0.000000 0.000000 -0.016807 -2.560617 -2.716035 1.310447 -9.945989 14.929328 3.216961 -8.874141 -11.906175 0.000000 -0.000000 0.000000 -0.695710 -2.635004 -0.820783 3.278208 -4.509085 13.884160 -1.783447 -1.218851 -2.707929 4.813173 -0.580078 -3.227200 -3.759437 3.674670 13.759809 -18.181075 17.348915 1.091725 -65.741356 -0.903539 18.644665 175.729454 -48.532368 -143.148401 -27.899983 -9.241423 -1.210341 19.217334 -10.923195 -1.866397 58.836007 2.867199 15.912646 -174.297006 54.947041 -146.458206 34.393371 10.565034 -9.304882 
0.925971 3.037528 0.990146 -47.652359 0.629072 86.285778 1.693998 3.400069 7.342499 -4.342543 6.718498 -4.065796 5.083271 14.735983 -13.153234 0.000000 -0.000000 0.000000 -0.011572 -2.526300 -2.869596 1.329685 -9.926710 14.939912 3.188376 -8.902065 -11.857449 0.000000 -0.000000 0.000000 -0.682270 -2.595737 -0.789117 3.219446 -4.438037 13.876276 -1.822912 -1.207484 -2.568440 4.754440 -0.672231 -3.284571 -3.785520 3.647711 13.766067 -18.268951 17.249000 1.017413 -65.570914 -0.929637 18.686985 176.168364 -48.694877 -143.055240 -26.356949 -9.400490 -0.540139 19.226608 -10.928325 -1.934133 58.893946 2.842964 15.871443 -174.678815 54.969680 -146.763067 33.593252 10.742079 -9.468196 
0.926560 3.038559 0.990198 -47.610380 0.615878 86.341307 1.707884 3.353138 7.199520 -4.372602 6.696011 -4.050348 5.037415 14.757859 -13.050049 0.000000 -0.000000 0.000000 -0.001196 -2.509726 -3.002226 1.335409 -9.982566 14.926658 3.163607 -8.914946 -11.799466 0.000000 -0.000000 0.000000 -0.725575 -2.543036 -0.743532 3.192168 -4.424154 13.909134 -1.845577 -1.224675 -2.468144 4.726689 -0.676029 -3.307322 -3.798056 3.651102 13.943923 -18.216917 17.140478 0.971481 -65.634960 -1.038650 18.806257 176.077212 -48.878486 -142.971039 -25.966528 -9.454297 -0.732627 19.247827 -10.899383 -2.038476 58.960302 2.793516 16.016365 -174.794332 55.029141 -146.901629 33.239707 10.789678 -9.639845 
0.926838 3.039096 0.990249 -47.594500 0.618894 86.407123 1.713640 3.340328 7.110204 -4.371000 6.703908 -4.091023 5.021944 14.755319 -12.957076 0.000000 -0.000000 0.000000 0.021664 -2.484254 -3.097282 1.339718 -10.007556 14.885801 3.166925 -8.926568 -11.733505 0.000000 -0.000000 0.000000 -0.729186 -2.527213 -0.747914 3.168086 -4.410396 13.882307 -1.863182 -1.233801 -2.390603 4.727991 -0.630224 -3.374782 -3.763914 3.690462 14.123062 -18.140557 17.076288 0.962235 -65.607255 -1.084708 18.839667 176.053574 -48.981209 -142.923755 -25.959132 -9.483900 -0.916573 19.216543 -10.864364 -2.057759 58.987471 2.802303 16.107985 -174.886872 55.065068 -147.009610 33.314183 10.872503 -9.821406 
